<mxfile host="app.diagrams.net" agent="Mozilla/5.0 (Windows NT 10.0; Win64; x64) AppleWebKit/537.36 (KHTML, like Gecko) Chrome/132.0.0.0 YaBrowser/25.2.0.0 Safari/537.36" version="26.2.14">
  <diagram name="Page-1" id="2ca16b54-16f6-2749-3443-fa8db7711227">
    <mxGraphModel dx="3540" dy="1884" grid="1" gridSize="10" guides="1" tooltips="1" connect="1" arrows="1" fold="1" page="0" pageScale="1" pageWidth="1100" pageHeight="850" background="#D5E8D4" math="0" shadow="0">
      <root>
        <mxCell id="0" />
        <mxCell id="1" parent="0" />
        <mxCell id="k5YfsXKy078yhHcY-8dC-7" value="&lt;div style=&quot;box-sizing: border-box; width: 100%; background: rgb(228, 228, 228); padding: 2px;&quot;&gt;Users&lt;/div&gt;&lt;table style=&quot;width:100%;font-size:1em;&quot; cellpadding=&quot;2&quot; cellspacing=&quot;0&quot;&gt;&lt;tbody&gt;&lt;tr&gt;&lt;td&gt;PK&lt;/td&gt;&lt;td&gt;Id&lt;/td&gt;&lt;/tr&gt;&lt;tr&gt;&lt;td&gt;&lt;br&gt;&lt;/td&gt;&lt;td&gt;FirstName&lt;/td&gt;&lt;/tr&gt;&lt;tr&gt;&lt;td&gt;&lt;/td&gt;&lt;td&gt;LastName&lt;br&gt;Initials&lt;br&gt;Email&lt;br&gt;Status&lt;br&gt;ClinicId&lt;/td&gt;&lt;/tr&gt;&lt;/tbody&gt;&lt;/table&gt;" style="verticalAlign=top;align=left;overflow=fill;html=1;whiteSpace=wrap;" parent="1" vertex="1">
          <mxGeometry x="290" y="-130" width="180" height="140" as="geometry" />
        </mxCell>
        <mxCell id="k5YfsXKy078yhHcY-8dC-8" value="&lt;div style=&quot;box-sizing: border-box; width: 100%; background: rgb(228, 228, 228); padding: 2px;&quot;&gt;Roles&lt;/div&gt;&lt;table style=&quot;width:100%;font-size:1em;&quot; cellpadding=&quot;2&quot; cellspacing=&quot;0&quot;&gt;&lt;tbody&gt;&lt;tr&gt;&lt;td&gt;PK&lt;/td&gt;&lt;td&gt;Id&lt;/td&gt;&lt;/tr&gt;&lt;tr&gt;&lt;td&gt;&lt;br&gt;&lt;/td&gt;&lt;td&gt;Name&lt;/td&gt;&lt;/tr&gt;&lt;tr&gt;&lt;td&gt;&lt;/td&gt;&lt;td&gt;&lt;br&gt;&lt;/td&gt;&lt;/tr&gt;&lt;/tbody&gt;&lt;/table&gt;" style="verticalAlign=top;align=left;overflow=fill;html=1;whiteSpace=wrap;" parent="1" vertex="1">
          <mxGeometry x="990" y="-150" width="180" height="90" as="geometry" />
        </mxCell>
        <mxCell id="k5YfsXKy078yhHcY-8dC-9" value="&lt;div style=&quot;box-sizing: border-box; width: 100%; background: rgb(228, 228, 228); padding: 2px;&quot;&gt;MedicineTypes&lt;/div&gt;&lt;table style=&quot;width:100%;font-size:1em;&quot; cellpadding=&quot;2&quot; cellspacing=&quot;0&quot;&gt;&lt;tbody&gt;&lt;tr&gt;&lt;td&gt;PK&lt;/td&gt;&lt;td&gt;Id&lt;/td&gt;&lt;/tr&gt;&lt;tr&gt;&lt;td&gt;&lt;br&gt;&lt;/td&gt;&lt;td&gt;Name&lt;/td&gt;&lt;/tr&gt;&lt;tr&gt;&lt;td&gt;&lt;/td&gt;&lt;td&gt;&lt;br&gt;&lt;/td&gt;&lt;/tr&gt;&lt;/tbody&gt;&lt;/table&gt;" style="verticalAlign=top;align=left;overflow=fill;html=1;whiteSpace=wrap;" parent="1" vertex="1">
          <mxGeometry x="-120" y="-260" width="180" height="70" as="geometry" />
        </mxCell>
        <mxCell id="k5YfsXKy078yhHcY-8dC-10" value="&lt;div style=&quot;box-sizing: border-box; width: 100%; background: rgb(228, 228, 228); padding: 2px;&quot;&gt;DosageForms&lt;/div&gt;&lt;table style=&quot;width:100%;font-size:1em;&quot; cellpadding=&quot;2&quot; cellspacing=&quot;0&quot;&gt;&lt;tbody&gt;&lt;tr&gt;&lt;td&gt;PK&lt;/td&gt;&lt;td&gt;Id&lt;/td&gt;&lt;/tr&gt;&lt;tr&gt;&lt;td&gt;&lt;br&gt;&lt;/td&gt;&lt;td&gt;Name&lt;/td&gt;&lt;/tr&gt;&lt;tr&gt;&lt;td&gt;&lt;/td&gt;&lt;td&gt;&lt;br&gt;&lt;/td&gt;&lt;/tr&gt;&lt;/tbody&gt;&lt;/table&gt;" style="verticalAlign=top;align=left;overflow=fill;html=1;whiteSpace=wrap;" parent="1" vertex="1">
          <mxGeometry x="130" y="-260" width="180" height="70" as="geometry" />
        </mxCell>
        <mxCell id="k5YfsXKy078yhHcY-8dC-11" value="&lt;div style=&quot;box-sizing: border-box; width: 100%; background: rgb(228, 228, 228); padding: 2px;&quot;&gt;Medicines&lt;/div&gt;&lt;table style=&quot;width:100%;font-size:1em;&quot; cellpadding=&quot;2&quot; cellspacing=&quot;0&quot;&gt;&lt;tbody&gt;&lt;tr&gt;&lt;td&gt;PK&lt;/td&gt;&lt;td&gt;Id&lt;/td&gt;&lt;/tr&gt;&lt;tr&gt;&lt;td&gt;&lt;br&gt;&lt;/td&gt;&lt;td&gt;MedicineTypeId&lt;/td&gt;&lt;/tr&gt;&lt;tr&gt;&lt;td&gt;&lt;/td&gt;&lt;td&gt;Description&lt;br&gt;DosageFormId&lt;br&gt;ContainerId&lt;br&gt;State&lt;br&gt;Date&lt;br&gt;ExpireAt&lt;br&gt;Amount&lt;br&gt;&lt;br&gt;&lt;br&gt;&lt;br&gt;&lt;br&gt;&lt;/td&gt;&lt;/tr&gt;&lt;/tbody&gt;&lt;/table&gt;" style="verticalAlign=top;align=left;overflow=fill;html=1;whiteSpace=wrap;" parent="1" vertex="1">
          <mxGeometry x="-100" y="-110" width="170" height="180" as="geometry" />
        </mxCell>
        <mxCell id="k5YfsXKy078yhHcY-8dC-12" value="&lt;div style=&quot;box-sizing: border-box; width: 100%; background: rgb(228, 228, 228); padding: 2px;&quot;&gt;UserRoles&lt;/div&gt;&lt;table style=&quot;width:100%;font-size:1em;&quot; cellpadding=&quot;2&quot; cellspacing=&quot;0&quot;&gt;&lt;tbody&gt;&lt;tr&gt;&lt;td&gt;PK&lt;/td&gt;&lt;td&gt;RoleId&lt;/td&gt;&lt;/tr&gt;&lt;tr&gt;&lt;td&gt;PK&lt;/td&gt;&lt;td&gt;UserId&lt;/td&gt;&lt;/tr&gt;&lt;tr&gt;&lt;td&gt;&lt;/td&gt;&lt;td&gt;&lt;br&gt;&lt;/td&gt;&lt;/tr&gt;&lt;/tbody&gt;&lt;/table&gt;" style="verticalAlign=top;align=left;overflow=fill;html=1;whiteSpace=wrap;" parent="1" vertex="1">
          <mxGeometry x="680" y="-120" width="180" height="90" as="geometry" />
        </mxCell>
        <mxCell id="k5YfsXKy078yhHcY-8dC-21" value="&lt;div style=&quot;box-sizing: border-box; width: 100%; background: rgb(228, 228, 228); padding: 2px;&quot;&gt;Containers&lt;/div&gt;&lt;table style=&quot;width:100%;font-size:1em;&quot; cellpadding=&quot;2&quot; cellspacing=&quot;0&quot;&gt;&lt;tbody&gt;&lt;tr&gt;&lt;td&gt;PK&lt;/td&gt;&lt;td&gt;Id&lt;/td&gt;&lt;/tr&gt;&lt;tr&gt;&lt;td&gt;&lt;br&gt;&lt;/td&gt;&lt;td&gt;Name&lt;/td&gt;&lt;/tr&gt;&lt;tr&gt;&lt;td&gt;&lt;/td&gt;&lt;td&gt;&lt;br&gt;&lt;/td&gt;&lt;/tr&gt;&lt;/tbody&gt;&lt;/table&gt;" style="verticalAlign=top;align=left;overflow=fill;html=1;whiteSpace=wrap;" parent="1" vertex="1">
          <mxGeometry x="-440" y="70" width="180" height="70" as="geometry" />
        </mxCell>
        <mxCell id="k5YfsXKy078yhHcY-8dC-23" value="&lt;div style=&quot;box-sizing: border-box; width: 100%; background: rgb(228, 228, 228); padding: 2px;&quot;&gt;Supply&lt;/div&gt;&lt;table style=&quot;width:100%;font-size:1em;&quot; cellpadding=&quot;2&quot; cellspacing=&quot;0&quot;&gt;&lt;tbody&gt;&lt;tr&gt;&lt;td&gt;PK&lt;br&gt;&lt;br&gt;&lt;/td&gt;&lt;td&gt;Id&lt;br&gt;DateArrival&lt;br&gt;MedicineId&lt;/td&gt;&lt;/tr&gt;&lt;tr&gt;&lt;td&gt;&lt;br&gt;&lt;/td&gt;&lt;td&gt;ClinicId&lt;/td&gt;&lt;/tr&gt;&lt;tr&gt;&lt;td&gt;&lt;/td&gt;&lt;td&gt;Amount&lt;br&gt;&lt;br&gt;&lt;/td&gt;&lt;/tr&gt;&lt;/tbody&gt;&lt;/table&gt;" style="verticalAlign=top;align=left;overflow=fill;html=1;whiteSpace=wrap;" parent="1" vertex="1">
          <mxGeometry x="-210" y="320" width="180" height="160" as="geometry" />
        </mxCell>
        <mxCell id="k5YfsXKy078yhHcY-8dC-24" value="&lt;div style=&quot;box-sizing: border-box; width: 100%; background: rgb(228, 228, 228); padding: 2px;&quot;&gt;Clinics&lt;/div&gt;&lt;table style=&quot;width:100%;font-size:1em;&quot; cellpadding=&quot;2&quot; cellspacing=&quot;0&quot;&gt;&lt;tbody&gt;&lt;tr&gt;&lt;td&gt;PK&lt;/td&gt;&lt;td&gt;Id&lt;/td&gt;&lt;/tr&gt;&lt;tr&gt;&lt;td&gt;&lt;br&gt;&lt;/td&gt;&lt;td&gt;Name&lt;br&gt;City&lt;br&gt;AddressOne&lt;br&gt;AddressTwo&lt;br&gt;Phone&lt;br&gt;ClinicStockId&lt;/td&gt;&lt;/tr&gt;&lt;tr&gt;&lt;td&gt;&lt;/td&gt;&lt;td&gt;&lt;br&gt;&lt;/td&gt;&lt;/tr&gt;&lt;/tbody&gt;&lt;/table&gt;" style="verticalAlign=top;align=left;overflow=fill;html=1;whiteSpace=wrap;" parent="1" vertex="1">
          <mxGeometry x="150" y="580" width="180" height="140" as="geometry" />
        </mxCell>
        <mxCell id="k5YfsXKy078yhHcY-8dC-32" value="Relation" style="endArrow=open;html=1;endSize=12;startArrow=diamondThin;startSize=14;startFill=0;edgeStyle=orthogonalEdgeStyle;rounded=0;entryX=0.75;entryY=1;entryDx=0;entryDy=0;" parent="1" edge="1">
          <mxGeometry relative="1" as="geometry">
            <mxPoint x="-30" y="405" as="sourcePoint" />
            <mxPoint x="20.740000000000002" y="70" as="targetPoint" />
            <Array as="points">
              <mxPoint x="21" y="405" />
              <mxPoint x="21" y="220" />
              <mxPoint x="20" y="220" />
              <mxPoint x="20" y="130" />
            </Array>
          </mxGeometry>
        </mxCell>
        <mxCell id="k5YfsXKy078yhHcY-8dC-33" value="0..n" style="edgeLabel;resizable=0;html=1;align=left;verticalAlign=top;" parent="k5YfsXKy078yhHcY-8dC-32" connectable="0" vertex="1">
          <mxGeometry x="-1" relative="1" as="geometry" />
        </mxCell>
        <mxCell id="k5YfsXKy078yhHcY-8dC-34" value="1" style="edgeLabel;resizable=0;html=1;align=right;verticalAlign=top;" parent="k5YfsXKy078yhHcY-8dC-32" connectable="0" vertex="1">
          <mxGeometry x="1" relative="1" as="geometry" />
        </mxCell>
        <mxCell id="k5YfsXKy078yhHcY-8dC-35" value="Relation" style="endArrow=open;html=1;endSize=12;startArrow=diamondThin;startSize=14;startFill=0;edgeStyle=orthogonalEdgeStyle;rounded=0;exitX=0.5;exitY=1;exitDx=0;exitDy=0;entryX=0;entryY=0.5;entryDx=0;entryDy=0;" parent="1" source="k5YfsXKy078yhHcY-8dC-23" target="k5YfsXKy078yhHcY-8dC-24" edge="1">
          <mxGeometry relative="1" as="geometry">
            <mxPoint x="430" y="350" as="sourcePoint" />
            <mxPoint x="20" y="560" as="targetPoint" />
            <Array as="points">
              <mxPoint x="-120" y="650" />
            </Array>
          </mxGeometry>
        </mxCell>
        <mxCell id="k5YfsXKy078yhHcY-8dC-36" value="0..n" style="edgeLabel;resizable=0;html=1;align=left;verticalAlign=top;" parent="k5YfsXKy078yhHcY-8dC-35" connectable="0" vertex="1">
          <mxGeometry x="-1" relative="1" as="geometry">
            <mxPoint x="-20" y="5" as="offset" />
          </mxGeometry>
        </mxCell>
        <mxCell id="k5YfsXKy078yhHcY-8dC-37" value="1" style="edgeLabel;resizable=0;html=1;align=right;verticalAlign=top;" parent="k5YfsXKy078yhHcY-8dC-35" connectable="0" vertex="1">
          <mxGeometry x="1" relative="1" as="geometry" />
        </mxCell>
        <mxCell id="k5YfsXKy078yhHcY-8dC-38" value="Relation" style="endArrow=open;html=1;endSize=12;startArrow=diamondThin;startSize=14;startFill=0;edgeStyle=orthogonalEdgeStyle;rounded=0;exitX=0;exitY=0.5;exitDx=0;exitDy=0;entryX=1;entryY=0.5;entryDx=0;entryDy=0;" parent="1" edge="1">
          <mxGeometry relative="1" as="geometry">
            <mxPoint x="680" y="-67.5" as="sourcePoint" />
            <mxPoint x="470" y="-52.5" as="targetPoint" />
            <Array as="points">
              <mxPoint x="490" y="-67" />
              <mxPoint x="490" y="-52" />
            </Array>
          </mxGeometry>
        </mxCell>
        <mxCell id="k5YfsXKy078yhHcY-8dC-39" value="0..n" style="edgeLabel;resizable=0;html=1;align=left;verticalAlign=top;" parent="k5YfsXKy078yhHcY-8dC-38" connectable="0" vertex="1">
          <mxGeometry x="-1" relative="1" as="geometry" />
        </mxCell>
        <mxCell id="k5YfsXKy078yhHcY-8dC-40" value="1" style="edgeLabel;resizable=0;html=1;align=right;verticalAlign=top;" parent="k5YfsXKy078yhHcY-8dC-38" connectable="0" vertex="1">
          <mxGeometry x="1" relative="1" as="geometry" />
        </mxCell>
        <mxCell id="k5YfsXKy078yhHcY-8dC-41" value="Relation" style="endArrow=open;html=1;endSize=12;startArrow=diamondThin;startSize=14;startFill=0;edgeStyle=orthogonalEdgeStyle;rounded=0;exitX=1;exitY=0.5;exitDx=0;exitDy=0;entryX=0;entryY=0.5;entryDx=0;entryDy=0;" parent="1" source="k5YfsXKy078yhHcY-8dC-12" target="k5YfsXKy078yhHcY-8dC-8" edge="1">
          <mxGeometry relative="1" as="geometry">
            <mxPoint x="410" y="350" as="sourcePoint" />
            <mxPoint x="570" y="350" as="targetPoint" />
          </mxGeometry>
        </mxCell>
        <mxCell id="k5YfsXKy078yhHcY-8dC-42" value="0..n" style="edgeLabel;resizable=0;html=1;align=left;verticalAlign=top;" parent="k5YfsXKy078yhHcY-8dC-41" connectable="0" vertex="1">
          <mxGeometry x="-1" relative="1" as="geometry" />
        </mxCell>
        <mxCell id="k5YfsXKy078yhHcY-8dC-43" value="1" style="edgeLabel;resizable=0;html=1;align=right;verticalAlign=top;" parent="k5YfsXKy078yhHcY-8dC-41" connectable="0" vertex="1">
          <mxGeometry x="1" relative="1" as="geometry" />
        </mxCell>
        <mxCell id="k5YfsXKy078yhHcY-8dC-49" value="Relation" style="endArrow=open;html=1;endSize=12;startArrow=diamondThin;startSize=14;startFill=0;edgeStyle=orthogonalEdgeStyle;rounded=0;exitX=1;exitY=0.25;exitDx=0;exitDy=0;entryX=0;entryY=0.5;entryDx=0;entryDy=0;" parent="1" source="k5YfsXKy078yhHcY-8dC-11" target="k5YfsXKy078yhHcY-8dC-9" edge="1">
          <mxGeometry relative="1" as="geometry">
            <mxPoint x="600" y="360" as="sourcePoint" />
            <mxPoint x="760" y="360" as="targetPoint" />
            <mxPoint as="offset" />
            <Array as="points">
              <mxPoint x="90" y="-65" />
              <mxPoint x="90" y="-150" />
              <mxPoint x="-150" y="-150" />
              <mxPoint x="-150" y="-225" />
            </Array>
          </mxGeometry>
        </mxCell>
        <mxCell id="k5YfsXKy078yhHcY-8dC-50" value="0..n" style="edgeLabel;resizable=0;html=1;align=left;verticalAlign=top;" parent="k5YfsXKy078yhHcY-8dC-49" connectable="0" vertex="1">
          <mxGeometry x="-1" relative="1" as="geometry" />
        </mxCell>
        <mxCell id="k5YfsXKy078yhHcY-8dC-51" value="1" style="edgeLabel;resizable=0;html=1;align=right;verticalAlign=top;" parent="k5YfsXKy078yhHcY-8dC-49" connectable="0" vertex="1">
          <mxGeometry x="1" relative="1" as="geometry" />
        </mxCell>
        <mxCell id="k5YfsXKy078yhHcY-8dC-52" value="Relation" style="endArrow=open;html=1;endSize=12;startArrow=diamondThin;startSize=14;startFill=0;edgeStyle=orthogonalEdgeStyle;rounded=0;exitX=1;exitY=0.75;exitDx=0;exitDy=0;entryX=0;entryY=0.5;entryDx=0;entryDy=0;" parent="1" source="k5YfsXKy078yhHcY-8dC-11" target="k5YfsXKy078yhHcY-8dC-10" edge="1">
          <mxGeometry relative="1" as="geometry">
            <mxPoint x="590" y="414.5" as="sourcePoint" />
            <mxPoint x="750" y="414.5" as="targetPoint" />
          </mxGeometry>
        </mxCell>
        <mxCell id="k5YfsXKy078yhHcY-8dC-53" value="0..n" style="edgeLabel;resizable=0;html=1;align=left;verticalAlign=top;" parent="k5YfsXKy078yhHcY-8dC-52" connectable="0" vertex="1">
          <mxGeometry x="-1" relative="1" as="geometry" />
        </mxCell>
        <mxCell id="k5YfsXKy078yhHcY-8dC-54" value="1" style="edgeLabel;resizable=0;html=1;align=right;verticalAlign=top;" parent="k5YfsXKy078yhHcY-8dC-52" connectable="0" vertex="1">
          <mxGeometry x="1" relative="1" as="geometry" />
        </mxCell>
        <mxCell id="k5YfsXKy078yhHcY-8dC-55" value="Relation" style="endArrow=open;html=1;endSize=12;startArrow=diamondThin;startSize=14;startFill=0;edgeStyle=orthogonalEdgeStyle;rounded=0;exitX=0.341;exitY=0.998;exitDx=0;exitDy=0;entryX=1;entryY=0.5;entryDx=0;entryDy=0;exitPerimeter=0;" parent="1" target="k5YfsXKy078yhHcY-8dC-21" edge="1">
          <mxGeometry relative="1" as="geometry">
            <mxPoint x="-42.02999999999997" y="70.0000000000001" as="sourcePoint" />
            <mxPoint x="-390" y="105.36" as="targetPoint" />
            <Array as="points">
              <mxPoint x="-42" y="105" />
            </Array>
          </mxGeometry>
        </mxCell>
        <mxCell id="k5YfsXKy078yhHcY-8dC-56" value="0..n" style="edgeLabel;resizable=0;html=1;align=left;verticalAlign=top;" parent="k5YfsXKy078yhHcY-8dC-55" connectable="0" vertex="1">
          <mxGeometry x="-1" relative="1" as="geometry" />
        </mxCell>
        <mxCell id="k5YfsXKy078yhHcY-8dC-57" value="1" style="edgeLabel;resizable=0;html=1;align=right;verticalAlign=top;" parent="k5YfsXKy078yhHcY-8dC-55" connectable="0" vertex="1">
          <mxGeometry x="1" relative="1" as="geometry" />
        </mxCell>
        <mxCell id="k5YfsXKy078yhHcY-8dC-63" value="&lt;div style=&quot;box-sizing: border-box; width: 100%; background: rgb(228, 228, 228); padding: 2px;&quot;&gt;Patients&lt;/div&gt;&lt;table style=&quot;width:100%;font-size:1em;&quot; cellpadding=&quot;2&quot; cellspacing=&quot;0&quot;&gt;&lt;tbody&gt;&lt;tr&gt;&lt;td&gt;PK&lt;/td&gt;&lt;td&gt;Id&lt;br&gt;ClinicId&lt;/td&gt;&lt;/tr&gt;&lt;tr&gt;&lt;td&gt;&lt;/td&gt;&lt;td&gt;DateOfBirth&lt;/td&gt;&lt;/tr&gt;&lt;tr&gt;&lt;td&gt;&lt;/td&gt;&lt;td&gt;Sex&lt;br&gt;Status&lt;/td&gt;&lt;/tr&gt;&lt;/tbody&gt;&lt;/table&gt;" style="verticalAlign=top;align=left;overflow=fill;html=1;whiteSpace=wrap;" parent="1" vertex="1">
          <mxGeometry x="790" y="500" width="180" height="130" as="geometry" />
        </mxCell>
        <mxCell id="k5YfsXKy078yhHcY-8dC-65" value="&lt;div style=&quot;box-sizing: border-box; width: 100%; background: rgb(228, 228, 228); padding: 2px;&quot;&gt;Visits&lt;/div&gt;&lt;table style=&quot;width:100%;font-size:1em;&quot; cellpadding=&quot;2&quot; cellspacing=&quot;0&quot;&gt;&lt;tbody&gt;&lt;tr&gt;&lt;td&gt;PK&lt;br&gt;PK&lt;br&gt;PK&lt;br&gt;PK&lt;/td&gt;&lt;td&gt;PatientId&lt;span style=&quot;white-space: pre;&quot;&gt;&#x9;&lt;/span&gt;&lt;br&gt;ClinicId&lt;span style=&quot;white-space: pre;&quot;&gt;&#x9;&lt;/span&gt;&lt;table style=&quot;font-size: 1em; width: 180px;&quot; cellpadding=&quot;2&quot; cellspacing=&quot;0&quot;&gt;&lt;tbody&gt;&lt;tr&gt;&lt;td&gt;DateOfVisit&lt;/td&gt;&lt;/tr&gt;&lt;tr&gt;&lt;/tr&gt;&lt;/tbody&gt;&lt;/table&gt;MedicineId&lt;br&gt;NumberOfVisit&lt;br&gt;UserId&lt;/td&gt;&lt;/tr&gt;&lt;tr&gt;&lt;td&gt;&lt;br&gt;&lt;/td&gt;&lt;td&gt;&lt;br&gt;&lt;br&gt;&lt;/td&gt;&lt;/tr&gt;&lt;tr&gt;&lt;td&gt;&lt;/td&gt;&lt;td&gt;&lt;br&gt;&lt;/td&gt;&lt;/tr&gt;&lt;/tbody&gt;&lt;/table&gt;" style="verticalAlign=top;align=left;overflow=fill;html=1;whiteSpace=wrap;" parent="1" vertex="1">
          <mxGeometry x="570" y="160" width="180" height="125" as="geometry" />
        </mxCell>
        <mxCell id="k5YfsXKy078yhHcY-8dC-66" value="Relation" style="endArrow=open;html=1;endSize=12;startArrow=diamondThin;startSize=14;startFill=0;edgeStyle=orthogonalEdgeStyle;rounded=0;exitX=0;exitY=0.5;exitDx=0;exitDy=0;entryX=0;entryY=0.5;entryDx=0;entryDy=0;" parent="1" source="k5YfsXKy078yhHcY-8dC-65" target="k5YfsXKy078yhHcY-8dC-63" edge="1">
          <mxGeometry relative="1" as="geometry">
            <mxPoint x="410" y="470" as="sourcePoint" />
            <mxPoint x="570" y="470" as="targetPoint" />
            <Array as="points">
              <mxPoint x="530" y="223" />
              <mxPoint x="530" y="565" />
            </Array>
          </mxGeometry>
        </mxCell>
        <mxCell id="k5YfsXKy078yhHcY-8dC-67" value="0..n" style="edgeLabel;resizable=0;html=1;align=left;verticalAlign=top;" parent="k5YfsXKy078yhHcY-8dC-66" connectable="0" vertex="1">
          <mxGeometry x="-1" relative="1" as="geometry">
            <mxPoint x="-30" y="5" as="offset" />
          </mxGeometry>
        </mxCell>
        <mxCell id="k5YfsXKy078yhHcY-8dC-68" value="1" style="edgeLabel;resizable=0;html=1;align=right;verticalAlign=top;" parent="k5YfsXKy078yhHcY-8dC-66" connectable="0" vertex="1">
          <mxGeometry x="1" relative="1" as="geometry" />
        </mxCell>
        <mxCell id="k5YfsXKy078yhHcY-8dC-69" value="Relation" style="endArrow=open;html=1;endSize=12;startArrow=diamondThin;startSize=14;startFill=0;edgeStyle=orthogonalEdgeStyle;rounded=0;exitX=0.5;exitY=1;exitDx=0;exitDy=0;entryX=1;entryY=0.75;entryDx=0;entryDy=0;" parent="1" source="k5YfsXKy078yhHcY-8dC-7" target="k5YfsXKy078yhHcY-8dC-24" edge="1">
          <mxGeometry relative="1" as="geometry">
            <mxPoint x="410" y="370" as="sourcePoint" />
            <mxPoint x="570" y="370" as="targetPoint" />
            <Array as="points">
              <mxPoint x="380" y="685" />
            </Array>
            <mxPoint as="offset" />
          </mxGeometry>
        </mxCell>
        <mxCell id="k5YfsXKy078yhHcY-8dC-70" value="0..n" style="edgeLabel;resizable=0;html=1;align=left;verticalAlign=top;" parent="k5YfsXKy078yhHcY-8dC-69" connectable="0" vertex="1">
          <mxGeometry x="-1" relative="1" as="geometry" />
        </mxCell>
        <mxCell id="k5YfsXKy078yhHcY-8dC-71" value="1" style="edgeLabel;resizable=0;html=1;align=right;verticalAlign=top;" parent="k5YfsXKy078yhHcY-8dC-69" connectable="0" vertex="1">
          <mxGeometry x="1" relative="1" as="geometry" />
        </mxCell>
        <mxCell id="k5YfsXKy078yhHcY-8dC-75" value="Relation" style="endArrow=open;html=1;endSize=12;startArrow=diamondThin;startSize=14;startFill=0;edgeStyle=orthogonalEdgeStyle;rounded=0;entryX=0;entryY=0.5;entryDx=0;entryDy=0;exitX=0.446;exitY=0.995;exitDx=0;exitDy=0;exitPerimeter=0;" parent="1" source="k5YfsXKy078yhHcY-8dC-65" target="k5YfsXKy078yhHcY-8dC-11" edge="1">
          <mxGeometry relative="1" as="geometry">
            <mxPoint x="410" y="380" as="sourcePoint" />
            <mxPoint x="570" y="380" as="targetPoint" />
            <Array as="points">
              <mxPoint x="650" y="310" />
              <mxPoint x="-140" y="310" />
              <mxPoint x="-140" y="-20" />
            </Array>
          </mxGeometry>
        </mxCell>
        <mxCell id="k5YfsXKy078yhHcY-8dC-76" value="0..n" style="edgeLabel;resizable=0;html=1;align=left;verticalAlign=top;" parent="k5YfsXKy078yhHcY-8dC-75" connectable="0" vertex="1">
          <mxGeometry x="-1" relative="1" as="geometry" />
        </mxCell>
        <mxCell id="k5YfsXKy078yhHcY-8dC-77" value="1" style="edgeLabel;resizable=0;html=1;align=right;verticalAlign=top;" parent="k5YfsXKy078yhHcY-8dC-75" connectable="0" vertex="1">
          <mxGeometry x="1" relative="1" as="geometry" />
        </mxCell>
        <mxCell id="Tc5bM_jjAUg0h41O2GLL-1" value="&lt;div style=&quot;box-sizing: border-box; width: 100%; background: rgb(228, 228, 228); padding: 2px;&quot;&gt;ClinicStocks&lt;/div&gt;&lt;table style=&quot;width:100%;font-size:1em;&quot; cellpadding=&quot;2&quot; cellspacing=&quot;0&quot;&gt;&lt;tbody&gt;&lt;tr&gt;&lt;td&gt;PK&lt;br&gt;&lt;br&gt;&lt;/td&gt;&lt;td&gt;Id&lt;br&gt;MedicineId&lt;/td&gt;&lt;/tr&gt;&lt;tr&gt;&lt;td&gt;&lt;br&gt;&lt;/td&gt;&lt;td&gt;ClinicId&lt;/td&gt;&lt;/tr&gt;&lt;tr&gt;&lt;td&gt;&lt;/td&gt;&lt;td&gt;Amount&lt;br&gt;&lt;br&gt;&lt;br&gt;&lt;/td&gt;&lt;/tr&gt;&lt;/tbody&gt;&lt;/table&gt;" style="verticalAlign=top;align=left;overflow=fill;html=1;whiteSpace=wrap;" parent="1" vertex="1">
          <mxGeometry x="-570" y="720" width="180" height="150" as="geometry" />
        </mxCell>
        <mxCell id="Tc5bM_jjAUg0h41O2GLL-4" value="&lt;div style=&quot;box-sizing: border-box; width: 100%; background: rgb(228, 228, 228); padding: 2px;&quot;&gt;ClinicStocks&lt;/div&gt;&lt;table style=&quot;width:100%;font-size:1em;&quot; cellpadding=&quot;2&quot; cellspacing=&quot;0&quot;&gt;&lt;tbody&gt;&lt;tr&gt;&lt;td&gt;PK&lt;br&gt;&lt;br&gt;&lt;/td&gt;&lt;td&gt;SupplyId&lt;br&gt;ClinicStockId&lt;/td&gt;&lt;/tr&gt;&lt;tr&gt;&lt;td&gt;&lt;/td&gt;&lt;td&gt;&lt;br&gt;&lt;br&gt;&lt;br&gt;&lt;/td&gt;&lt;/tr&gt;&lt;/tbody&gt;&lt;/table&gt;" style="verticalAlign=top;align=left;overflow=fill;html=1;whiteSpace=wrap;" parent="1" vertex="1">
          <mxGeometry x="-440" y="520" width="180" height="150" as="geometry" />
        </mxCell>
        <mxCell id="VgIQAjNQEwHclF-OJjE5-1" value="Relation" style="endArrow=open;html=1;endSize=12;startArrow=diamondThin;startSize=14;startFill=0;edgeStyle=orthogonalEdgeStyle;rounded=0;exitX=1;exitY=0.5;exitDx=0;exitDy=0;entryX=0;entryY=0.5;entryDx=0;entryDy=0;" parent="1" source="Tc5bM_jjAUg0h41O2GLL-4" target="k5YfsXKy078yhHcY-8dC-23" edge="1">
          <mxGeometry relative="1" as="geometry">
            <mxPoint x="-160" y="520" as="sourcePoint" />
            <mxPoint y="520" as="targetPoint" />
          </mxGeometry>
        </mxCell>
        <mxCell id="VgIQAjNQEwHclF-OJjE5-2" value="0..n" style="edgeLabel;resizable=0;html=1;align=left;verticalAlign=top;" parent="VgIQAjNQEwHclF-OJjE5-1" connectable="0" vertex="1">
          <mxGeometry x="-1" relative="1" as="geometry" />
        </mxCell>
        <mxCell id="VgIQAjNQEwHclF-OJjE5-3" value="1" style="edgeLabel;resizable=0;html=1;align=right;verticalAlign=top;" parent="VgIQAjNQEwHclF-OJjE5-1" connectable="0" vertex="1">
          <mxGeometry x="1" relative="1" as="geometry" />
        </mxCell>
        <mxCell id="VgIQAjNQEwHclF-OJjE5-4" value="Relation" style="endArrow=open;html=1;endSize=12;startArrow=diamondThin;startSize=14;startFill=0;edgeStyle=orthogonalEdgeStyle;rounded=0;exitX=0.5;exitY=1;exitDx=0;exitDy=0;entryX=1;entryY=0.75;entryDx=0;entryDy=0;" parent="1" source="Tc5bM_jjAUg0h41O2GLL-4" target="Tc5bM_jjAUg0h41O2GLL-1" edge="1">
          <mxGeometry relative="1" as="geometry">
            <mxPoint x="-160" y="520" as="sourcePoint" />
            <mxPoint y="520" as="targetPoint" />
          </mxGeometry>
        </mxCell>
        <mxCell id="VgIQAjNQEwHclF-OJjE5-5" value="0..n" style="edgeLabel;resizable=0;html=1;align=left;verticalAlign=top;" parent="VgIQAjNQEwHclF-OJjE5-4" connectable="0" vertex="1">
          <mxGeometry x="-1" relative="1" as="geometry" />
        </mxCell>
        <mxCell id="VgIQAjNQEwHclF-OJjE5-6" value="1" style="edgeLabel;resizable=0;html=1;align=right;verticalAlign=top;" parent="VgIQAjNQEwHclF-OJjE5-4" connectable="0" vertex="1">
          <mxGeometry x="1" relative="1" as="geometry" />
        </mxCell>
        <mxCell id="VgIQAjNQEwHclF-OJjE5-7" value="Relation" style="endArrow=open;html=1;endSize=12;startArrow=diamondThin;startSize=14;startFill=0;edgeStyle=orthogonalEdgeStyle;rounded=0;entryX=0;entryY=0.25;entryDx=0;entryDy=0;exitX=0;exitY=0.5;exitDx=0;exitDy=0;" parent="1" source="Tc5bM_jjAUg0h41O2GLL-1" target="k5YfsXKy078yhHcY-8dC-11" edge="1">
          <mxGeometry relative="1" as="geometry">
            <mxPoint x="-150" y="230" as="sourcePoint" />
            <mxPoint x="10" y="230" as="targetPoint" />
            <Array as="points">
              <mxPoint x="-610" y="795" />
              <mxPoint x="-610" y="-65" />
            </Array>
          </mxGeometry>
        </mxCell>
        <mxCell id="VgIQAjNQEwHclF-OJjE5-8" value="0..n" style="edgeLabel;resizable=0;html=1;align=left;verticalAlign=top;" parent="VgIQAjNQEwHclF-OJjE5-7" connectable="0" vertex="1">
          <mxGeometry x="-1" relative="1" as="geometry" />
        </mxCell>
        <mxCell id="VgIQAjNQEwHclF-OJjE5-9" value="1" style="edgeLabel;resizable=0;html=1;align=right;verticalAlign=top;" parent="VgIQAjNQEwHclF-OJjE5-7" connectable="0" vertex="1">
          <mxGeometry x="1" relative="1" as="geometry" />
        </mxCell>
        <mxCell id="VgIQAjNQEwHclF-OJjE5-10" value="Relation" style="endArrow=open;html=1;endSize=12;startArrow=diamondThin;startSize=14;startFill=0;edgeStyle=orthogonalEdgeStyle;rounded=0;exitX=1;exitY=0.5;exitDx=0;exitDy=0;entryX=0.25;entryY=1;entryDx=0;entryDy=0;" parent="1" source="Tc5bM_jjAUg0h41O2GLL-1" target="k5YfsXKy078yhHcY-8dC-24" edge="1">
          <mxGeometry relative="1" as="geometry">
            <mxPoint x="-290" y="650" as="sourcePoint" />
            <mxPoint x="-130" y="650" as="targetPoint" />
          </mxGeometry>
        </mxCell>
        <mxCell id="VgIQAjNQEwHclF-OJjE5-11" value="0..n" style="edgeLabel;resizable=0;html=1;align=left;verticalAlign=top;" parent="VgIQAjNQEwHclF-OJjE5-10" connectable="0" vertex="1">
          <mxGeometry x="-1" relative="1" as="geometry" />
        </mxCell>
        <mxCell id="VgIQAjNQEwHclF-OJjE5-12" value="1" style="edgeLabel;resizable=0;html=1;align=right;verticalAlign=top;" parent="VgIQAjNQEwHclF-OJjE5-10" connectable="0" vertex="1">
          <mxGeometry x="1" relative="1" as="geometry" />
        </mxCell>
        <mxCell id="kRVFlaKKhEQhchVDR1qj-4" value="Relation" style="endArrow=open;html=1;endSize=12;startArrow=diamondThin;startSize=14;startFill=0;edgeStyle=orthogonalEdgeStyle;rounded=0;entryX=1;entryY=0.5;entryDx=0;entryDy=0;exitX=0.5;exitY=1;exitDx=0;exitDy=0;" edge="1" parent="1" source="k5YfsXKy078yhHcY-8dC-63" target="k5YfsXKy078yhHcY-8dC-24">
          <mxGeometry relative="1" as="geometry">
            <mxPoint x="600" y="400" as="sourcePoint" />
            <mxPoint x="760" y="400" as="targetPoint" />
          </mxGeometry>
        </mxCell>
        <mxCell id="kRVFlaKKhEQhchVDR1qj-5" value="0..n" style="edgeLabel;resizable=0;html=1;align=left;verticalAlign=top;" connectable="0" vertex="1" parent="kRVFlaKKhEQhchVDR1qj-4">
          <mxGeometry x="-1" relative="1" as="geometry" />
        </mxCell>
        <mxCell id="kRVFlaKKhEQhchVDR1qj-6" value="1" style="edgeLabel;resizable=0;html=1;align=right;verticalAlign=top;" connectable="0" vertex="1" parent="kRVFlaKKhEQhchVDR1qj-4">
          <mxGeometry x="1" relative="1" as="geometry" />
        </mxCell>
        <mxCell id="kRVFlaKKhEQhchVDR1qj-7" value="Relation" style="endArrow=open;html=1;endSize=12;startArrow=diamondThin;startSize=14;startFill=0;edgeStyle=orthogonalEdgeStyle;rounded=0;entryX=0.5;entryY=0;entryDx=0;entryDy=0;exitX=1;exitY=0.5;exitDx=0;exitDy=0;" edge="1" parent="1" source="k5YfsXKy078yhHcY-8dC-65" target="k5YfsXKy078yhHcY-8dC-24">
          <mxGeometry relative="1" as="geometry">
            <mxPoint x="320" y="290" as="sourcePoint" />
            <mxPoint x="480" y="290" as="targetPoint" />
            <Array as="points">
              <mxPoint x="790" y="223" />
              <mxPoint x="790" y="433" />
              <mxPoint x="240" y="433" />
            </Array>
          </mxGeometry>
        </mxCell>
        <mxCell id="kRVFlaKKhEQhchVDR1qj-8" value="0..n" style="edgeLabel;resizable=0;html=1;align=left;verticalAlign=top;" connectable="0" vertex="1" parent="kRVFlaKKhEQhchVDR1qj-7">
          <mxGeometry x="-1" relative="1" as="geometry" />
        </mxCell>
        <mxCell id="kRVFlaKKhEQhchVDR1qj-9" value="1" style="edgeLabel;resizable=0;html=1;align=right;verticalAlign=top;" connectable="0" vertex="1" parent="kRVFlaKKhEQhchVDR1qj-7">
          <mxGeometry x="1" relative="1" as="geometry" />
        </mxCell>
        <mxCell id="kRVFlaKKhEQhchVDR1qj-10" value="Relation" style="endArrow=open;html=1;endSize=12;startArrow=diamondThin;startSize=14;startFill=0;edgeStyle=orthogonalEdgeStyle;rounded=0;entryX=0.75;entryY=1;entryDx=0;entryDy=0;exitX=0.75;exitY=0;exitDx=0;exitDy=0;" edge="1" parent="1" source="k5YfsXKy078yhHcY-8dC-65" target="k5YfsXKy078yhHcY-8dC-7">
          <mxGeometry relative="1" as="geometry">
            <mxPoint x="420" y="270" as="sourcePoint" />
            <mxPoint x="580" y="270" as="targetPoint" />
          </mxGeometry>
        </mxCell>
        <mxCell id="kRVFlaKKhEQhchVDR1qj-11" value="0..n" style="edgeLabel;resizable=0;html=1;align=left;verticalAlign=top;" connectable="0" vertex="1" parent="kRVFlaKKhEQhchVDR1qj-10">
          <mxGeometry x="-1" relative="1" as="geometry" />
        </mxCell>
        <mxCell id="kRVFlaKKhEQhchVDR1qj-12" value="1" style="edgeLabel;resizable=0;html=1;align=right;verticalAlign=top;" connectable="0" vertex="1" parent="kRVFlaKKhEQhchVDR1qj-10">
          <mxGeometry x="1" relative="1" as="geometry" />
        </mxCell>
      </root>
    </mxGraphModel>
  </diagram>
</mxfile>
